<mxfile host="app.diagrams.net" modified="2023-08-14T19:52:13.347Z" agent="Mozilla/5.0 (Macintosh; Intel Mac OS X 10_15_7) AppleWebKit/537.36 (KHTML, like Gecko) Chrome/112.0.0.0 Safari/537.36" version="21.6.8" etag="mB2U-lNkAR-FjOr4ZZQ5" type="github">
  <diagram name="Page-1" id="Ot1VNMcmZVA3IwzKSsnR">
    <mxGraphModel>
      <root>
        <mxCell id="0" />
        <mxCell id="1" parent="0" />
      </root>
    </mxGraphModel>
  </diagram>
</mxfile>
